<svg id="visual" viewBox="0 0 900 600" width="900" height="600" xmlns="http://www.w3.org/2000/svg" xmlns:xlink="http://www.w3.org/1999/xlink" version="1.1"><rect x="0" y="0" width="900" height="600" fill="#ffffff"></rect><defs><linearGradient id="grad1_0" x1="33.3%" y1="100%" x2="100%" y2="0%"><stop offset="20%" stop-color="#6d63fc" stop-opacity="1"></stop><stop offset="80%" stop-color="#6d63fc" stop-opacity="1"></stop></linearGradient></defs><defs><linearGradient id="grad1_1" x1="33.3%" y1="100%" x2="100%" y2="0%"><stop offset="20%" stop-color="#6d63fc" stop-opacity="1"></stop><stop offset="80%" stop-color="#9381fe" stop-opacity="1"></stop></linearGradient></defs><defs><linearGradient id="grad1_2" x1="33.3%" y1="100%" x2="100%" y2="0%"><stop offset="20%" stop-color="#b29fff" stop-opacity="1"></stop><stop offset="80%" stop-color="#9381fe" stop-opacity="1"></stop></linearGradient></defs><defs><linearGradient id="grad1_3" x1="33.3%" y1="100%" x2="100%" y2="0%"><stop offset="20%" stop-color="#b29fff" stop-opacity="1"></stop><stop offset="80%" stop-color="#cebeff" stop-opacity="1"></stop></linearGradient></defs><defs><linearGradient id="grad1_4" x1="33.3%" y1="100%" x2="100%" y2="0%"><stop offset="20%" stop-color="#e7deff" stop-opacity="1"></stop><stop offset="80%" stop-color="#cebeff" stop-opacity="1"></stop></linearGradient></defs><defs><linearGradient id="grad1_5" x1="33.3%" y1="100%" x2="100%" y2="0%"><stop offset="20%" stop-color="#e7deff" stop-opacity="1"></stop><stop offset="80%" stop-color="#ffffff" stop-opacity="1"></stop></linearGradient></defs><defs><linearGradient id="grad2_0" x1="0%" y1="100%" x2="66.7%" y2="0%"><stop offset="20%" stop-color="#6d63fc" stop-opacity="1"></stop><stop offset="80%" stop-color="#6d63fc" stop-opacity="1"></stop></linearGradient></defs><defs><linearGradient id="grad2_1" x1="0%" y1="100%" x2="66.7%" y2="0%"><stop offset="20%" stop-color="#9381fe" stop-opacity="1"></stop><stop offset="80%" stop-color="#6d63fc" stop-opacity="1"></stop></linearGradient></defs><defs><linearGradient id="grad2_2" x1="0%" y1="100%" x2="66.7%" y2="0%"><stop offset="20%" stop-color="#9381fe" stop-opacity="1"></stop><stop offset="80%" stop-color="#b29fff" stop-opacity="1"></stop></linearGradient></defs><defs><linearGradient id="grad2_3" x1="0%" y1="100%" x2="66.7%" y2="0%"><stop offset="20%" stop-color="#cebeff" stop-opacity="1"></stop><stop offset="80%" stop-color="#b29fff" stop-opacity="1"></stop></linearGradient></defs><defs><linearGradient id="grad2_4" x1="0%" y1="100%" x2="66.7%" y2="0%"><stop offset="20%" stop-color="#cebeff" stop-opacity="1"></stop><stop offset="80%" stop-color="#e7deff" stop-opacity="1"></stop></linearGradient></defs><defs><linearGradient id="grad2_5" x1="0%" y1="100%" x2="66.7%" y2="0%"><stop offset="20%" stop-color="#ffffff" stop-opacity="1"></stop><stop offset="80%" stop-color="#e7deff" stop-opacity="1"></stop></linearGradient></defs><g transform="translate(900, 600)"><path d="M-486.7 0C-467.4 -56.2 -448 -112.5 -429.6 -177.9C-411.2 -243.4 -393.7 -318.2 -344.2 -344.2C-294.7 -370.2 -213.1 -347.4 -150.4 -363.1C-87.7 -378.7 -43.8 -432.7 0 -486.7L0 0Z" fill="#f3efff"></path><path d="M-405.6 0C-389.5 -46.9 -373.4 -93.7 -358 -148.3C-342.7 -202.9 -328.1 -265.2 -286.8 -286.8C-245.6 -308.5 -177.6 -289.5 -125.3 -302.6C-73.1 -315.6 -36.5 -360.6 0 -405.6L0 0Z" fill="#dbceff"></path><path d="M-324.5 0C-311.6 -37.5 -298.7 -75 -286.4 -118.6C-274.1 -162.3 -262.5 -212.1 -229.5 -229.5C-196.4 -246.8 -142.1 -231.6 -100.3 -242.1C-58.5 -252.5 -29.2 -288.5 0 -324.5L0 0Z" fill="#c0afff"></path><path d="M-243.4 0C-233.7 -28.1 -224 -56.2 -214.8 -89C-205.6 -121.7 -196.9 -159.1 -172.1 -172.1C-147.3 -185.1 -106.5 -173.7 -75.2 -181.5C-43.8 -189.4 -21.9 -216.4 0 -243.4L0 0Z" fill="#a390fe"></path><path d="M-162.2 0C-155.8 -18.7 -149.3 -37.5 -143.2 -59.3C-137.1 -81.1 -131.2 -106.1 -114.7 -114.7C-98.2 -123.4 -71 -115.8 -50.1 -121C-29.2 -126.2 -14.6 -144.2 0 -162.2L0 0Z" fill="#8172fd"></path><path d="M-81.1 0C-77.9 -9.4 -74.7 -18.7 -71.6 -29.7C-68.5 -40.6 -65.6 -53 -57.4 -57.4C-49.1 -61.7 -35.5 -57.9 -25.1 -60.5C-14.6 -63.1 -7.3 -72.1 0 -81.1L0 0Z" fill="#6d63fc"></path></g><g transform="translate(0, 0)"><path d="M486.7 0C475.6 61.2 464.4 122.3 443.5 183.7C422.5 245.1 391.8 306.7 344.2 344.2C296.6 381.7 232 395.1 171.8 414.8C111.6 434.6 55.8 460.7 0 486.7L0 0Z" fill="#f3efff"></path><path d="M405.6 0C396.3 51 387 101.9 369.6 153.1C352.1 204.2 326.5 255.6 286.8 286.8C247.1 318.1 193.3 329.2 143.2 345.7C93 362.1 46.5 383.9 0 405.6L0 0Z" fill="#dbceff"></path><path d="M324.5 0C317.1 40.8 309.6 81.5 295.6 122.5C281.7 163.4 261.2 204.5 229.5 229.5C197.7 254.5 154.7 263.4 114.5 276.5C74.4 289.7 37.2 307.1 0 324.5L0 0Z" fill="#c0afff"></path><path d="M243.4 0C237.8 30.6 232.2 61.2 221.7 91.8C211.3 122.5 195.9 153.3 172.1 172.1C148.3 190.8 116 197.5 85.9 207.4C55.8 217.3 27.9 230.3 0 243.4L0 0Z" fill="#a390fe"></path><path d="M162.2 0C158.5 20.4 154.8 40.8 147.8 61.2C140.8 81.7 130.6 102.2 114.7 114.7C98.9 127.2 77.3 131.7 57.3 138.3C37.2 144.9 18.6 153.6 0 162.2L0 0Z" fill="#8172fd"></path><path d="M81.1 0C79.3 10.2 77.4 20.4 73.9 30.6C70.4 40.8 65.3 51.1 57.4 57.4C49.4 63.6 38.7 65.8 28.6 69.1C18.6 72.4 9.3 76.8 0 81.1L0 0Z" fill="#6d63fc"></path></g></svg>