<svg id="visual" viewBox="0 0 900 600" width="900" height="600" xmlns="http://www.w3.org/2000/svg" xmlns:xlink="http://www.w3.org/1999/xlink" version="1.1"><rect x="0" y="0" width="900" height="600" fill="#ffffff"></rect><defs><linearGradient id="grad1_0" x1="33.3%" y1="0%" x2="100%" y2="100%"><stop offset="20%" stop-color="#6d63fc" stop-opacity="1"></stop><stop offset="80%" stop-color="#6d63fc" stop-opacity="1"></stop></linearGradient></defs><defs><linearGradient id="grad1_1" x1="33.3%" y1="0%" x2="100%" y2="100%"><stop offset="20%" stop-color="#6d63fc" stop-opacity="1"></stop><stop offset="80%" stop-color="#9381fe" stop-opacity="1"></stop></linearGradient></defs><defs><linearGradient id="grad1_2" x1="33.3%" y1="0%" x2="100%" y2="100%"><stop offset="20%" stop-color="#b29fff" stop-opacity="1"></stop><stop offset="80%" stop-color="#9381fe" stop-opacity="1"></stop></linearGradient></defs><defs><linearGradient id="grad1_3" x1="33.3%" y1="0%" x2="100%" y2="100%"><stop offset="20%" stop-color="#b29fff" stop-opacity="1"></stop><stop offset="80%" stop-color="#cebeff" stop-opacity="1"></stop></linearGradient></defs><defs><linearGradient id="grad1_4" x1="33.3%" y1="0%" x2="100%" y2="100%"><stop offset="20%" stop-color="#e7deff" stop-opacity="1"></stop><stop offset="80%" stop-color="#cebeff" stop-opacity="1"></stop></linearGradient></defs><defs><linearGradient id="grad1_5" x1="33.3%" y1="0%" x2="100%" y2="100%"><stop offset="20%" stop-color="#e7deff" stop-opacity="1"></stop><stop offset="80%" stop-color="#ffffff" stop-opacity="1"></stop></linearGradient></defs><defs><linearGradient id="grad2_0" x1="0%" y1="0%" x2="66.7%" y2="100%"><stop offset="20%" stop-color="#6d63fc" stop-opacity="1"></stop><stop offset="80%" stop-color="#6d63fc" stop-opacity="1"></stop></linearGradient></defs><defs><linearGradient id="grad2_1" x1="0%" y1="0%" x2="66.7%" y2="100%"><stop offset="20%" stop-color="#9381fe" stop-opacity="1"></stop><stop offset="80%" stop-color="#6d63fc" stop-opacity="1"></stop></linearGradient></defs><defs><linearGradient id="grad2_2" x1="0%" y1="0%" x2="66.7%" y2="100%"><stop offset="20%" stop-color="#9381fe" stop-opacity="1"></stop><stop offset="80%" stop-color="#b29fff" stop-opacity="1"></stop></linearGradient></defs><defs><linearGradient id="grad2_3" x1="0%" y1="0%" x2="66.7%" y2="100%"><stop offset="20%" stop-color="#cebeff" stop-opacity="1"></stop><stop offset="80%" stop-color="#b29fff" stop-opacity="1"></stop></linearGradient></defs><defs><linearGradient id="grad2_4" x1="0%" y1="0%" x2="66.7%" y2="100%"><stop offset="20%" stop-color="#cebeff" stop-opacity="1"></stop><stop offset="80%" stop-color="#e7deff" stop-opacity="1"></stop></linearGradient></defs><defs><linearGradient id="grad2_5" x1="0%" y1="0%" x2="66.7%" y2="100%"><stop offset="20%" stop-color="#ffffff" stop-opacity="1"></stop><stop offset="80%" stop-color="#e7deff" stop-opacity="1"></stop></linearGradient></defs><g transform="translate(900, 0)"><path d="M0 486.7C-56.2 467.4 -112.5 448 -177.9 429.6C-243.4 411.2 -318.2 393.7 -344.2 344.2C-370.2 294.7 -347.4 213.1 -363.1 150.4C-378.7 87.7 -432.7 43.8 -486.7 0L0 0Z" fill="#f3efff"></path><path d="M0 405.6C-46.9 389.5 -93.7 373.4 -148.3 358C-202.9 342.7 -265.2 328.1 -286.8 286.8C-308.5 245.6 -289.5 177.6 -302.6 125.3C-315.6 73.1 -360.6 36.5 -405.6 0L0 0Z" fill="#dbceff"></path><path d="M0 324.5C-37.5 311.6 -75 298.7 -118.6 286.4C-162.3 274.1 -212.1 262.5 -229.5 229.5C-246.8 196.4 -231.6 142.1 -242.1 100.3C-252.5 58.5 -288.5 29.2 -324.5 0L0 0Z" fill="#c0afff"></path><path d="M0 243.4C-28.1 233.7 -56.2 224 -89 214.8C-121.7 205.6 -159.1 196.9 -172.1 172.1C-185.1 147.3 -173.7 106.5 -181.5 75.2C-189.4 43.8 -216.4 21.9 -243.4 0L0 0Z" fill="#a390fe"></path><path d="M0 162.2C-18.7 155.8 -37.5 149.3 -59.3 143.2C-81.1 137.1 -106.1 131.2 -114.7 114.7C-123.4 98.2 -115.8 71 -121 50.1C-126.2 29.2 -144.2 14.6 -162.2 0L0 0Z" fill="#8172fd"></path><path d="M0 81.1C-9.4 77.9 -18.7 74.7 -29.7 71.6C-40.6 68.5 -53 65.6 -57.4 57.4C-61.7 49.1 -57.9 35.5 -60.5 25.1C-63.1 14.6 -72.1 7.3 -81.1 0L0 0Z" fill="#6d63fc"></path></g><g transform="translate(0, 600)"><path d="M0 -486.7C61.2 -475.6 122.3 -464.4 183.7 -443.5C245.1 -422.5 306.7 -391.8 344.2 -344.2C381.7 -296.6 395.1 -232 414.8 -171.8C434.6 -111.6 460.7 -55.8 486.7 0L0 0Z" fill="#f3efff"></path><path d="M0 -405.6C51 -396.3 101.9 -387 153.1 -369.6C204.2 -352.1 255.6 -326.5 286.8 -286.8C318.1 -247.1 329.2 -193.3 345.7 -143.2C362.1 -93 383.9 -46.5 405.6 0L0 0Z" fill="#dbceff"></path><path d="M0 -324.5C40.8 -317.1 81.5 -309.6 122.5 -295.6C163.4 -281.7 204.5 -261.2 229.5 -229.5C254.5 -197.7 263.4 -154.7 276.5 -114.5C289.7 -74.4 307.1 -37.2 324.5 0L0 0Z" fill="#c0afff"></path><path d="M0 -243.4C30.6 -237.8 61.2 -232.2 91.8 -221.7C122.5 -211.3 153.3 -195.9 172.1 -172.1C190.8 -148.3 197.5 -116 207.4 -85.9C217.3 -55.8 230.3 -27.9 243.4 0L0 0Z" fill="#a390fe"></path><path d="M0 -162.2C20.4 -158.5 40.8 -154.8 61.2 -147.8C81.7 -140.8 102.2 -130.6 114.7 -114.7C127.2 -98.9 131.7 -77.3 138.3 -57.3C144.9 -37.2 153.6 -18.6 162.2 0L0 0Z" fill="#8172fd"></path><path d="M0 -81.1C10.2 -79.3 20.4 -77.4 30.6 -73.9C40.8 -70.4 51.1 -65.3 57.4 -57.4C63.6 -49.4 65.8 -38.7 69.1 -28.6C72.4 -18.6 76.8 -9.3 81.1 0L0 0Z" fill="#6d63fc"></path></g></svg>