<svg id="visual" viewBox="0 0 900 300" width="900" height="300" xmlns="http://www.w3.org/2000/svg" xmlns:xlink="http://www.w3.org/1999/xlink" version="1.1"><path d="M0 99L21.5 110.8C43 122.7 86 146.3 128.8 146.3C171.7 146.3 214.3 122.7 257.2 110C300 97.3 343 95.7 385.8 108.2C428.7 120.7 471.3 147.3 514.2 152.7C557 158 600 142 642.8 143.8C685.7 145.7 728.3 165.3 771.2 175.8C814 186.3 857 187.7 878.5 188.3L900 189L900 301L878.5 301C857 301 814 301 771.2 301C728.3 301 685.7 301 642.8 301C600 301 557 301 514.2 301C471.3 301 428.7 301 385.8 301C343 301 300 301 257.2 301C214.3 301 171.7 301 128.8 301C86 301 43 301 21.5 301L0 301Z" fill="#e1d8fe"></path><path d="M0 161L21.5 165.2C43 169.3 86 177.7 128.8 178.8C171.7 180 214.3 174 257.2 171.5C300 169 343 170 385.8 168.3C428.7 166.7 471.3 162.3 514.2 164.5C557 166.7 600 175.3 642.8 179.2C685.7 183 728.3 182 771.2 177.7C814 173.3 857 165.7 878.5 161.8L900 158L900 301L878.5 301C857 301 814 301 771.2 301C728.3 301 685.7 301 642.8 301C600 301 557 301 514.2 301C471.3 301 428.7 301 385.8 301C343 301 300 301 257.2 301C214.3 301 171.7 301 128.8 301C86 301 43 301 21.5 301L0 301Z" fill="#cbbffa"></path><path d="M0 209L21.5 201.7C43 194.3 86 179.7 128.8 183.8C171.7 188 214.3 211 257.2 215.5C300 220 343 206 385.8 206.8C428.7 207.7 471.3 223.3 514.2 229C557 234.7 600 230.3 642.8 227.7C685.7 225 728.3 224 771.2 217C814 210 857 197 878.5 190.5L900 184L900 301L878.5 301C857 301 814 301 771.2 301C728.3 301 685.7 301 642.8 301C600 301 557 301 514.2 301C471.3 301 428.7 301 385.8 301C343 301 300 301 257.2 301C214.3 301 171.7 301 128.8 301C86 301 43 301 21.5 301L0 301Z" fill="#b4a6f6"></path><path d="M0 213L21.5 213.7C43 214.3 86 215.7 128.8 215.8C171.7 216 214.3 215 257.2 217.3C300 219.7 343 225.3 385.8 226.3C428.7 227.3 471.3 223.7 514.2 223.3C557 223 600 226 642.8 223.2C685.7 220.3 728.3 211.7 771.2 208.2C814 204.7 857 206.3 878.5 207.2L900 208L900 301L878.5 301C857 301 814 301 771.2 301C728.3 301 685.7 301 642.8 301C600 301 557 301 514.2 301C471.3 301 428.7 301 385.8 301C343 301 300 301 257.2 301C214.3 301 171.7 301 128.8 301C86 301 43 301 21.5 301L0 301Z" fill="#9b8ef2"></path><path d="M0 242L21.5 246.7C43 251.3 86 260.7 128.8 266C171.7 271.3 214.3 272.7 257.2 271.7C300 270.7 343 267.3 385.8 264.5C428.7 261.7 471.3 259.3 514.2 256.7C557 254 600 251 642.8 252.7C685.7 254.3 728.3 260.7 771.2 264.5C814 268.3 857 269.7 878.5 270.3L900 271L900 301L878.5 301C857 301 814 301 771.2 301C728.3 301 685.7 301 642.8 301C600 301 557 301 514.2 301C471.3 301 428.7 301 385.8 301C343 301 300 301 257.2 301C214.3 301 171.7 301 128.8 301C86 301 43 301 21.5 301L0 301Z" fill="#7e76ee"></path></svg>