<svg id="visual" viewBox="0 0 900 600" width="900" height="600" xmlns="http://www.w3.org/2000/svg" xmlns:xlink="http://www.w3.org/1999/xlink" version="1.1"><path d="M0 124L50 183L100 150L150 128L200 208L250 212L300 208L350 160L400 128L450 155L500 185L550 215L600 143L650 149L700 127L750 169L800 198L850 201L900 133L900 0L850 0L800 0L750 0L700 0L650 0L600 0L550 0L500 0L450 0L400 0L350 0L300 0L250 0L200 0L150 0L100 0L50 0L0 0Z" fill="#c0afff"></path><path d="M0 128L50 112L100 118L150 153L200 92L250 108L300 145L350 125L400 168L450 93L500 154L550 155L600 156L650 104L700 178L750 82L800 88L850 109L900 105L900 0L850 0L800 0L750 0L700 0L650 0L600 0L550 0L500 0L450 0L400 0L350 0L300 0L250 0L200 0L150 0L100 0L50 0L0 0Z" fill="#ae9bff"></path><path d="M0 131L50 85L100 77L150 73L200 128L250 80L300 75L350 67L400 91L450 131L500 71L550 67L600 94L650 109L700 99L750 106L800 131L850 120L900 137L900 0L850 0L800 0L750 0L700 0L650 0L600 0L550 0L500 0L450 0L400 0L350 0L300 0L250 0L200 0L150 0L100 0L50 0L0 0Z" fill="#9b88fe"></path><path d="M0 60L50 70L100 77L150 73L200 97L250 65L300 46L350 49L400 94L450 38L500 73L550 59L600 47L650 70L700 64L750 77L800 35L850 56L900 72L900 0L850 0L800 0L750 0L700 0L650 0L600 0L550 0L500 0L450 0L400 0L350 0L300 0L250 0L200 0L150 0L100 0L50 0L0 0Z" fill="#8675fd"></path><path d="M0 25L50 57L100 42L150 25L200 14L250 60L300 45L350 63L400 35L450 13L500 56L550 16L600 48L650 66L700 35L750 48L800 11L850 22L900 16L900 0L850 0L800 0L750 0L700 0L650 0L600 0L550 0L500 0L450 0L400 0L350 0L300 0L250 0L200 0L150 0L100 0L50 0L0 0Z" fill="#6d63fc"></path></svg>