<svg id="visual" viewBox="0 0 900 600" width="900" height="600" xmlns="http://www.w3.org/2000/svg" xmlns:xlink="http://www.w3.org/1999/xlink" version="1.1"><path d="M0 61L7.8 64C15.7 67 31.3 73 47.2 71C63 69 79 59 94.8 59C110.7 59 126.3 69 142 70C157.7 71 173.3 63 189.2 56C205 49 221 43 236.8 44C252.7 45 268.3 53 284.2 54C300 55 316 49 331.8 49C347.7 49 363.3 55 379 58C394.7 61 410.3 61 426.2 63C442 65 458 69 473.8 72C489.7 75 505.3 77 521 78C536.7 79 552.3 79 568.2 76C584 73 600 67 615.8 61C631.7 55 647.3 49 663.2 52C679 55 695 67 710.8 68C726.7 69 742.3 59 758 57C773.7 55 789.3 61 805.2 65C821 69 837 71 852.8 72C868.7 73 884.3 73 892.2 73L900 73L900 0L892.2 0C884.3 0 868.7 0 852.8 0C837 0 821 0 805.2 0C789.3 0 773.7 0 758 0C742.3 0 726.7 0 710.8 0C695 0 679 0 663.2 0C647.3 0 631.7 0 615.8 0C600 0 584 0 568.2 0C552.3 0 536.7 0 521 0C505.3 0 489.7 0 473.8 0C458 0 442 0 426.2 0C410.3 0 394.7 0 379 0C363.3 0 347.7 0 331.8 0C316 0 300 0 284.2 0C268.3 0 252.7 0 236.8 0C221 0 205 0 189.2 0C173.3 0 157.7 0 142 0C126.3 0 110.7 0 94.8 0C79 0 63 0 47.2 0C31.3 0 15.7 0 7.8 0L0 0Z" fill="#dbceff"></path><path d="M0 271L7.8 265C15.7 259 31.3 247 47.2 237C63 227 79 219 94.8 214C110.7 209 126.3 207 142 203C157.7 199 173.3 193 189.2 196C205 199 221 211 236.8 211C252.7 211 268.3 199 284.2 183C300 167 316 147 331.8 155C347.7 163 363.3 199 379 204C394.7 209 410.3 183 426.2 183C442 183 458 209 473.8 219C489.7 229 505.3 223 521 221C536.7 219 552.3 221 568.2 224C584 227 600 231 615.8 227C631.7 223 647.3 211 663.2 201C679 191 695 183 710.8 184C726.7 185 742.3 195 758 204C773.7 213 789.3 221 805.2 226C821 231 837 233 852.8 223C868.7 213 884.3 191 892.2 180L900 169L900 71L892.2 71C884.3 71 868.7 71 852.8 70C837 69 821 67 805.2 63C789.3 59 773.7 53 758 55C742.3 57 726.7 67 710.8 66C695 65 679 53 663.2 50C647.3 47 631.7 53 615.8 59C600 65 584 71 568.2 74C552.3 77 536.7 77 521 76C505.3 75 489.7 73 473.8 70C458 67 442 63 426.2 61C410.3 59 394.7 59 379 56C363.3 53 347.7 47 331.8 47C316 47 300 53 284.2 52C268.3 51 252.7 43 236.8 42C221 41 205 47 189.2 54C173.3 61 157.7 69 142 68C126.3 67 110.7 57 94.8 57C79 57 63 67 47.2 69C31.3 71 15.7 65 7.8 62L0 59Z" fill="#c9bbfe"></path><path d="M0 325L7.8 318C15.7 311 31.3 297 47.2 287C63 277 79 271 94.8 266C110.7 261 126.3 257 142 251C157.7 245 173.3 237 189.2 241C205 245 221 261 236.8 261C252.7 261 268.3 245 284.2 227C300 209 316 189 331.8 197C347.7 205 363.3 241 379 249C394.7 257 410.3 237 426.2 235C442 233 458 249 473.8 258C489.7 267 505.3 269 521 269C536.7 269 552.3 267 568.2 271C584 275 600 285 615.8 283C631.7 281 647.3 267 663.2 252C679 237 695 221 710.8 223C726.7 225 742.3 245 758 256C773.7 267 789.3 269 805.2 269C821 269 837 267 852.8 258C868.7 249 884.3 233 892.2 225L900 217L900 167L892.2 178C884.3 189 868.7 211 852.8 221C837 231 821 229 805.2 224C789.3 219 773.7 211 758 202C742.3 193 726.7 183 710.8 182C695 181 679 189 663.2 199C647.3 209 631.7 221 615.8 225C600 229 584 225 568.2 222C552.3 219 536.7 217 521 219C505.3 221 489.7 227 473.8 217C458 207 442 181 426.2 181C410.3 181 394.7 207 379 202C363.3 197 347.7 161 331.8 153C316 145 300 165 284.2 181C268.3 197 252.7 209 236.8 209C221 209 205 197 189.2 194C173.3 191 157.7 197 142 201C126.3 205 110.7 207 94.8 212C79 217 63 225 47.2 235C31.3 245 15.7 257 7.8 263L0 269Z" fill="#b4a8fe"></path><path d="M0 421L7.8 415C15.7 409 31.3 397 47.2 385C63 373 79 361 94.8 355C110.7 349 126.3 349 142 347C157.7 345 173.3 341 189.2 352C205 363 221 389 236.8 388C252.7 387 268.3 359 284.2 328C300 297 316 263 331.8 269C347.7 275 363.3 321 379 337C394.7 353 410.3 339 426.2 338C442 337 458 349 473.8 349C489.7 349 505.3 337 521 339C536.7 341 552.3 357 568.2 368C584 379 600 385 615.8 385C631.7 385 647.3 379 663.2 366C679 353 695 333 710.8 331C726.7 329 742.3 345 758 353C773.7 361 789.3 361 805.2 354C821 347 837 333 852.8 321C868.7 309 884.3 299 892.2 294L900 289L900 215L892.2 223C884.3 231 868.7 247 852.8 256C837 265 821 267 805.2 267C789.3 267 773.7 265 758 254C742.3 243 726.7 223 710.8 221C695 219 679 235 663.2 250C647.3 265 631.7 279 615.8 281C600 283 584 273 568.2 269C552.3 265 536.7 267 521 267C505.3 267 489.7 265 473.8 256C458 247 442 231 426.2 233C410.3 235 394.7 255 379 247C363.3 239 347.7 203 331.8 195C316 187 300 207 284.2 225C268.3 243 252.7 259 236.8 259C221 259 205 243 189.2 239C173.3 235 157.7 243 142 249C126.3 255 110.7 259 94.8 264C79 269 63 275 47.2 285C31.3 295 15.7 309 7.8 316L0 323Z" fill="#9c96fe"></path><path d="M0 463L7.8 465C15.7 467 31.3 471 47.2 463C63 455 79 435 94.8 422C110.7 409 126.3 403 142 402C157.7 401 173.3 405 189.2 415C205 425 221 441 236.8 438C252.7 435 268.3 413 284.2 391C300 369 316 347 331.8 357C347.7 367 363.3 409 379 424C394.7 439 410.3 427 426.2 427C442 427 458 439 473.8 431C489.7 423 505.3 395 521 396C536.7 397 552.3 427 568.2 441C584 455 600 453 615.8 455C631.7 457 647.3 463 663.2 456C679 449 695 429 710.8 419C726.7 409 742.3 409 758 416C773.7 423 789.3 437 805.2 433C821 429 837 407 852.8 394C868.7 381 884.3 377 892.2 375L900 373L900 287L892.2 292C884.3 297 868.7 307 852.8 319C837 331 821 345 805.2 352C789.3 359 773.7 359 758 351C742.3 343 726.7 327 710.8 329C695 331 679 351 663.2 364C647.3 377 631.7 383 615.8 383C600 383 584 377 568.2 366C552.3 355 536.7 339 521 337C505.3 335 489.7 347 473.8 347C458 347 442 335 426.2 336C410.3 337 394.7 351 379 335C363.3 319 347.7 273 331.8 267C316 261 300 295 284.2 326C268.3 357 252.7 385 236.8 386C221 387 205 361 189.2 350C173.3 339 157.7 343 142 345C126.3 347 110.7 347 94.8 353C79 359 63 371 47.2 383C31.3 395 15.7 407 7.8 413L0 419Z" fill="#8085fe"></path><path d="M0 565L7.8 564C15.7 563 31.3 561 47.2 558C63 555 79 551 94.8 552C110.7 553 126.3 559 142 558C157.7 557 173.3 549 189.2 547C205 545 221 549 236.8 552C252.7 555 268.3 557 284.2 553C300 549 316 539 331.8 540C347.7 541 363.3 553 379 557C394.7 561 410.3 557 426.2 551C442 545 458 537 473.8 539C489.7 541 505.3 553 521 556C536.7 559 552.3 553 568.2 549C584 545 600 543 615.8 544C631.7 545 647.3 549 663.2 554C679 559 695 565 710.8 565C726.7 565 742.3 559 758 556C773.7 553 789.3 553 805.2 555C821 557 837 561 852.8 563C868.7 565 884.3 565 892.2 565L900 565L900 371L892.2 373C884.3 375 868.7 379 852.8 392C837 405 821 427 805.2 431C789.3 435 773.7 421 758 414C742.3 407 726.7 407 710.8 417C695 427 679 447 663.2 454C647.3 461 631.7 455 615.8 453C600 451 584 453 568.2 439C552.3 425 536.7 395 521 394C505.3 393 489.7 421 473.8 429C458 437 442 425 426.2 425C410.3 425 394.7 437 379 422C363.3 407 347.7 365 331.8 355C316 345 300 367 284.2 389C268.3 411 252.7 433 236.8 436C221 439 205 423 189.2 413C173.3 403 157.7 399 142 400C126.3 401 110.7 407 94.8 420C79 433 63 453 47.2 461C31.3 469 15.7 465 7.8 463L0 461Z" fill="#5b75ff"></path><path d="M0 601L7.8 601C15.7 601 31.3 601 47.2 601C63 601 79 601 94.8 601C110.7 601 126.3 601 142 601C157.7 601 173.3 601 189.2 601C205 601 221 601 236.8 601C252.7 601 268.3 601 284.2 601C300 601 316 601 331.8 601C347.7 601 363.3 601 379 601C394.7 601 410.3 601 426.2 601C442 601 458 601 473.8 601C489.7 601 505.3 601 521 601C536.7 601 552.3 601 568.2 601C584 601 600 601 615.8 601C631.7 601 647.3 601 663.2 601C679 601 695 601 710.8 601C726.7 601 742.3 601 758 601C773.7 601 789.3 601 805.2 601C821 601 837 601 852.8 601C868.7 601 884.3 601 892.2 601L900 601L900 563L892.2 563C884.3 563 868.7 563 852.8 561C837 559 821 555 805.2 553C789.3 551 773.7 551 758 554C742.3 557 726.7 563 710.8 563C695 563 679 557 663.2 552C647.3 547 631.7 543 615.8 542C600 541 584 543 568.2 547C552.3 551 536.7 557 521 554C505.3 551 489.7 539 473.8 537C458 535 442 543 426.2 549C410.3 555 394.7 559 379 555C363.3 551 347.7 539 331.8 538C316 537 300 547 284.2 551C268.3 555 252.7 553 236.8 550C221 547 205 543 189.2 545C173.3 547 157.7 555 142 556C126.3 557 110.7 551 94.8 550C79 549 63 553 47.2 556C31.3 559 15.7 561 7.8 562L0 563Z" fill="#0066ff"></path></svg>