<svg id="visual" viewBox="0 0 900 600" width="900" height="600" xmlns="http://www.w3.org/2000/svg" xmlns:xlink="http://www.w3.org/1999/xlink" version="1.1"><g><g transform="translate(796 88)"><path d="M0 -54.2L47 -27.1L47 27.1L0 54.2L-47 27.1L-47 -27.1Z" fill="#e1d8fe"></path></g><g transform="translate(57 446)"><path d="M0 -30L26 -15L26 15L0 30L-26 15L-26 -15Z" fill="#e1d8fe"></path></g><g transform="translate(235 343)"><path d="M0 -32L27.7 -16L27.7 16L0 32L-27.7 16L-27.7 -16Z" fill="#e1d8fe"></path></g><g transform="translate(397 261)"><path d="M0 -50L43.3 -25L43.3 25L0 50L-43.3 25L-43.3 -25Z" fill="#e1d8fe"></path></g><g transform="translate(471 36)"><path d="M0 -33L28.6 -16.5L28.6 16.5L0 33L-28.6 16.5L-28.6 -16.5Z" fill="#e1d8fe"></path></g><g transform="translate(605 478)"><path d="M0 -41L35.5 -20.5L35.5 20.5L0 41L-35.5 20.5L-35.5 -20.5Z" fill="#e1d8fe"></path></g><g transform="translate(146 181)"><path d="M0 -53L45.9 -26.5L45.9 26.5L0 53L-45.9 26.5L-45.9 -26.5Z" fill="#e1d8fe"></path></g><g transform="translate(295 578)"><path d="M0 -23L19.9 -11.5L19.9 11.5L0 23L-19.9 11.5L-19.9 -11.5Z" fill="#e1d8fe"></path></g><g transform="translate(762 195)"><path d="M0 -23L19.9 -11.5L19.9 11.5L0 23L-19.9 11.5L-19.9 -11.5Z" fill="#e1d8fe"></path></g><g transform="translate(300 124)"><path d="M0 -26L22.5 -13L22.5 13L0 26L-22.5 13L-22.5 -13Z" fill="#e1d8fe"></path></g><g transform="translate(262 234)"><path d="M0 -47L40.7 -23.5L40.7 23.5L0 47L-40.7 23.5L-40.7 -23.5Z" fill="#e1d8fe"></path></g><g transform="translate(816 412)"><path d="M0 -39L33.8 -19.5L33.8 19.5L0 39L-33.8 19.5L-33.8 -19.5Z" fill="#e1d8fe"></path></g><g transform="translate(615 271)"><path d="M0 -38L32.9 -19L32.9 19L0 38L-32.9 19L-32.9 -19Z" fill="#e1d8fe"></path></g><g transform="translate(401 377)"><path d="M0 -27L23.4 -13.5L23.4 13.5L0 27L-23.4 13.5L-23.4 -13.5Z" fill="#e1d8fe"></path></g><g transform="translate(164 582)"><path d="M0 -52L45 -26L45 26L0 52L-45 26L-45 -26Z" fill="#e1d8fe"></path></g><g transform="translate(54 589)"><path d="M0 -53L45.9 -26.5L45.9 26.5L0 53L-45.9 26.5L-45.9 -26.5Z" fill="#e1d8fe"></path></g><g transform="translate(510 317)"><path d="M0 -31L26.8 -15.5L26.8 15.5L0 31L-26.8 15.5L-26.8 -15.5Z" fill="#e1d8fe"></path></g><g transform="translate(80 67)"><path d="M0 -46L39.8 -23L39.8 23L0 46L-39.8 23L-39.8 -23Z" fill="#e1d8fe"></path></g><g transform="translate(577 91)"><path d="M0 -38L32.9 -19L32.9 19L0 38L-32.9 19L-32.9 -19Z" fill="#e1d8fe"></path></g><g transform="translate(889 583)"><path d="M0 -32L27.7 -16L27.7 16L0 32L-27.7 16L-27.7 -16Z" fill="#e1d8fe"></path></g><g transform="translate(30 167)"><path d="M0 -52L45 -26L45 26L0 52L-45 26L-45 -26Z" fill="#e1d8fe"></path></g><g transform="translate(727 305)"><path d="M0 -25L21.7 -12.5L21.7 12.5L0 25L-21.7 12.5L-21.7 -12.5Z" fill="#e1d8fe"></path></g><g transform="translate(877 172)"><path d="M0 -33L28.6 -16.5L28.6 16.5L0 33L-28.6 16.5L-28.6 -16.5Z" fill="#e1d8fe"></path></g><g transform="translate(34 294)"><path d="M0 -43L37.2 -21.5L37.2 21.5L0 43L-37.2 21.5L-37.2 -21.5Z" fill="#e1d8fe"></path></g><g transform="translate(548 573)"><path d="M0 -43L37.2 -21.5L37.2 21.5L0 43L-37.2 21.5L-37.2 -21.5Z" fill="#e1d8fe"></path></g><g transform="translate(170 450)"><path d="M0 -40L34.6 -20L34.6 20L0 40L-34.6 20L-34.6 -20Z" fill="#e1d8fe"></path></g><g transform="translate(491 180)"><path d="M0 -25L21.7 -12.5L21.7 12.5L0 25L-21.7 12.5L-21.7 -12.5Z" fill="#e1d8fe"></path></g><g transform="translate(763 575)"><path d="M0 -53L45.9 -26.5L45.9 26.5L0 53L-45.9 26.5L-45.9 -26.5Z" fill="#e1d8fe"></path></g><g transform="translate(225 20)"><path d="M0 -32L27.7 -16L27.7 16L0 32L-27.7 16L-27.7 -16Z" fill="#e1d8fe"></path></g><g transform="translate(484 454)"><path d="M0 -41L35.5 -20.5L35.5 20.5L0 41L-35.5 20.5L-35.5 -20.5Z" fill="#e1d8fe"></path></g><g transform="translate(699 5)"><path d="M0 -40L34.6 -20L34.6 20L0 40L-34.6 20L-34.6 -20Z" fill="#e1d8fe"></path></g><g transform="translate(714 470)"><path d="M0 -45L39 -22.5L39 22.5L0 45L-39 22.5L-39 -22.5Z" fill="#e1d8fe"></path></g><g transform="translate(429 556)"><path d="M0 -31L26.8 -15.5L26.8 15.5L0 31L-26.8 15.5L-26.8 -15.5Z" fill="#e1d8fe"></path></g><g transform="translate(329 472)"><path d="M0 -36L31.2 -18L31.2 18L0 36L-31.2 18L-31.2 -18Z" fill="#e1d8fe"></path></g><g transform="translate(864 280)"><path d="M0 -53L45.9 -26.5L45.9 26.5L0 53L-45.9 26.5L-45.9 -26.5Z" fill="#e1d8fe"></path></g><g transform="translate(337 13)"><path d="M0 -38L32.9 -19L32.9 19L0 38L-32.9 19L-32.9 -19Z" fill="#e1d8fe"></path></g><g transform="translate(891 19)"><path d="M0 -35L30.3 -17.5L30.3 17.5L0 35L-30.3 17.5L-30.3 -17.5Z" fill="#e1d8fe"></path></g></g></svg>