<svg id="visual" viewBox="0 0 900 450" width="900" height="450" xmlns="http://www.w3.org/2000/svg" xmlns:xlink="http://www.w3.org/1999/xlink" version="1.1"><path d="M484 450L471.3 435C458.7 420 433.3 390 435 360C436.7 330 465.3 300 475.8 270C486.3 240 478.7 210 462.8 180C447 150 423 120 422.3 90C421.7 60 444.3 30 455.7 15L467 0L900 0L900 15C900 30 900 60 900 90C900 120 900 150 900 180C900 210 900 240 900 270C900 300 900 330 900 360C900 390 900 420 900 435L900 450Z" fill="#e1d8fe"></path><path d="M509 450L502.8 435C496.7 420 484.3 390 498.2 360C512 330 552 300 561.2 270C570.3 240 548.7 210 523 180C497.3 150 467.7 120 434.7 90C401.7 60 365.3 30 347.2 15L329 0L900 0L900 15C900 30 900 60 900 90C900 120 900 150 900 180C900 210 900 240 900 270C900 300 900 330 900 360C900 390 900 420 900 435L900 450Z" fill="#d5c9fc"></path><path d="M363 450L410 435C457 420 551 390 567.2 360C583.3 330 521.7 300 504 270C486.3 240 512.7 210 541.5 180C570.3 150 601.7 120 572.7 90C543.7 60 454.3 30 409.7 15L365 0L900 0L900 15C900 30 900 60 900 90C900 120 900 150 900 180C900 210 900 240 900 270C900 300 900 330 900 360C900 390 900 420 900 435L900 450Z" fill="#c8bbfa"></path><path d="M448 450L476 435C504 420 560 390 567.8 360C575.7 330 535.3 300 517.7 270C500 240 505 210 512.5 180C520 150 530 120 527 90C524 60 508 30 500 15L492 0L900 0L900 15C900 30 900 60 900 90C900 120 900 150 900 180C900 210 900 240 900 270C900 300 900 330 900 360C900 390 900 420 900 435L900 450Z" fill="#bbadf7"></path><path d="M655 450L663.7 435C672.3 420 689.7 390 677.3 360C665 330 623 300 596.2 270C569.3 240 557.7 210 580.3 180C603 150 660 120 668.5 90C677 60 637 30 617 15L597 0L900 0L900 15C900 30 900 60 900 90C900 120 900 150 900 180C900 210 900 240 900 270C900 300 900 330 900 360C900 390 900 420 900 435L900 450Z" fill="#ad9ff5"></path><path d="M606 450L626 435C646 420 686 390 710.7 360C735.3 330 744.7 300 741.7 270C738.7 240 723.3 210 699.7 180C676 150 644 120 633.2 90C622.3 60 632.7 30 637.8 15L643 0L900 0L900 15C900 30 900 60 900 90C900 120 900 150 900 180C900 210 900 240 900 270C900 300 900 330 900 360C900 390 900 420 900 435L900 450Z" fill="#9e91f3"></path><path d="M751 450L749 435C747 420 743 390 742.8 360C742.7 330 746.3 300 736.2 270C726 240 702 210 694.5 180C687 150 696 120 709 90C722 60 739 30 747.5 15L756 0L900 0L900 15C900 30 900 60 900 90C900 120 900 150 900 180C900 210 900 240 900 270C900 300 900 330 900 360C900 390 900 420 900 435L900 450Z" fill="#8f83f0"></path><path d="M798 450L795.7 435C793.3 420 788.7 390 788 360C787.3 330 790.7 300 801.2 270C811.7 240 829.3 210 824.2 180C819 150 791 120 780.3 90C769.7 60 776.3 30 779.7 15L783 0L900 0L900 15C900 30 900 60 900 90C900 120 900 150 900 180C900 210 900 240 900 270C900 300 900 330 900 360C900 390 900 420 900 435L900 450Z" fill="#7e76ee"></path></svg>