<svg id="visual" viewBox="0 0 960 540" width="960" height="540" xmlns="http://www.w3.org/2000/svg" xmlns:xlink="http://www.w3.org/1999/xlink" version="1.1"><path d="M362 0L402.5 12.8C443 25.7 524 51.3 575.8 77C627.7 102.7 650.3 128.3 611 154C571.7 179.7 470.3 205.3 423 231.2C375.7 257 382.3 283 432.5 308.8C482.7 334.7 576.3 360.3 571.2 386C566 411.7 462 437.3 414.7 463C367.3 488.7 376.7 514.3 381.3 527.2L386 540L0 540L0 527.2C0 514.3 0 488.7 0 463C0 437.3 0 411.7 0 386C0 360.3 0 334.7 0 308.8C0 283 0 257 0 231.2C0 205.3 0 179.7 0 154C0 128.3 0 102.7 0 77C0 51.3 0 25.7 0 12.8L0 0Z" fill="#e1d8fe"></path><path d="M447 0L448.8 12.8C450.7 25.7 454.3 51.3 423.5 77C392.7 102.7 327.3 128.3 324 154C320.7 179.7 379.3 205.3 395.2 231.2C411 257 384 283 401.2 308.8C418.3 334.7 479.7 360.3 501.8 386C524 411.7 507 437.3 461.3 463C415.7 488.7 341.3 514.3 304.2 527.2L267 540L0 540L0 527.2C0 514.3 0 488.7 0 463C0 437.3 0 411.7 0 386C0 360.3 0 334.7 0 308.8C0 283 0 257 0 231.2C0 205.3 0 179.7 0 154C0 128.3 0 102.7 0 77C0 51.3 0 25.7 0 12.8L0 0Z" fill="#cbbffa"></path><path d="M430 0L428.3 12.8C426.7 25.7 423.3 51.3 408 77C392.7 102.7 365.3 128.3 354.8 154C344.3 179.7 350.7 205.3 362 231.2C373.3 257 389.7 283 367.8 308.8C346 334.7 286 360.3 272.5 386C259 411.7 292 437.3 289.2 463C286.3 488.7 247.7 514.3 228.3 527.2L209 540L0 540L0 527.2C0 514.3 0 488.7 0 463C0 437.3 0 411.7 0 386C0 360.3 0 334.7 0 308.8C0 283 0 257 0 231.2C0 205.3 0 179.7 0 154C0 128.3 0 102.7 0 77C0 51.3 0 25.7 0 12.8L0 0Z" fill="#b4a6f6"></path><path d="M188 0L198.2 12.8C208.3 25.7 228.7 51.3 222.8 77C217 102.7 185 128.3 179.5 154C174 179.7 195 205.3 211.8 231.2C228.7 257 241.3 283 249.7 308.8C258 334.7 262 360.3 251.2 386C240.3 411.7 214.7 437.3 198.8 463C183 488.7 177 514.3 174 527.2L171 540L0 540L0 527.2C0 514.3 0 488.7 0 463C0 437.3 0 411.7 0 386C0 360.3 0 334.7 0 308.8C0 283 0 257 0 231.2C0 205.3 0 179.7 0 154C0 128.3 0 102.7 0 77C0 51.3 0 25.7 0 12.8L0 0Z" fill="#9b8ef2"></path><path d="M146 0L148.3 12.8C150.7 25.7 155.3 51.3 157.8 77C160.3 102.7 160.7 128.3 146.3 154C132 179.7 103 205.3 111.3 231.2C119.7 257 165.3 283 176.3 308.8C187.3 334.7 163.7 360.3 157 386C150.3 411.7 160.7 437.3 152.2 463C143.7 488.7 116.3 514.3 102.7 527.2L89 540L0 540L0 527.2C0 514.3 0 488.7 0 463C0 437.3 0 411.7 0 386C0 360.3 0 334.7 0 308.8C0 283 0 257 0 231.2C0 205.3 0 179.7 0 154C0 128.3 0 102.7 0 77C0 51.3 0 25.7 0 12.8L0 0Z" fill="#7e76ee"></path></svg>