<svg id="visual" viewBox="0 0 900 300" width="900" height="300" xmlns="http://www.w3.org/2000/svg" xmlns:xlink="http://www.w3.org/1999/xlink" version="1.1"><path d="M0 251L13.7 253.8C27.3 256.7 54.7 262.3 82 255.8C109.3 249.3 136.7 230.7 163.8 225.8C191 221 218 230 245.2 229C272.3 228 299.7 217 327 222.7C354.3 228.3 381.7 250.7 409 250.8C436.3 251 463.7 229 491 218.3C518.3 207.7 545.7 208.3 573 211.7C600.3 215 627.7 221 654.8 225.5C682 230 709 233 736.2 230.8C763.3 228.7 790.7 221.3 818 222.7C845.3 224 872.7 234 886.3 239L900 244L900 301L886.3 301C872.7 301 845.3 301 818 301C790.7 301 763.3 301 736.2 301C709 301 682 301 654.8 301C627.7 301 600.3 301 573 301C545.7 301 518.3 301 491 301C463.7 301 436.3 301 409 301C381.7 301 354.3 301 327 301C299.7 301 272.3 301 245.2 301C218 301 191 301 163.8 301C136.7 301 109.3 301 82 301C54.7 301 27.3 301 13.7 301L0 301Z" fill="#8172fd" stroke-linecap="round" stroke-linejoin="miter"></path></svg>