<svg id="visual" viewBox="0 0 960 540" width="960" height="540" xmlns="http://www.w3.org/2000/svg" xmlns:xlink="http://www.w3.org/1999/xlink" version="1.1"><path d="M0 44L8.8 45C17.7 46 35.3 48 53.2 49.8C71 51.7 89 53.3 106.8 55C124.7 56.7 142.3 58.3 160 58.3C177.7 58.3 195.3 56.7 213.2 56.7C231 56.7 249 58.3 266.8 56.5C284.7 54.7 302.3 49.3 320 46.7C337.7 44 355.3 44 373.2 46.7C391 49.3 409 54.7 426.8 57.3C444.7 60 462.3 60 480 60C497.7 60 515.3 60 533.2 58.3C551 56.7 569 53.3 586.8 53.3C604.7 53.3 622.3 56.7 640 58.3C657.7 60 675.3 60 693.2 57.3C711 54.7 729 49.3 746.8 48.5C764.7 47.7 782.3 51.3 800 52.3C817.7 53.3 835.3 51.7 853.2 49.8C871 48 889 46 906.8 45C924.7 44 942.3 44 951.2 44L960 44L960 0L951.2 0C942.3 0 924.7 0 906.8 0C889 0 871 0 853.2 0C835.3 0 817.7 0 800 0C782.3 0 764.7 0 746.8 0C729 0 711 0 693.2 0C675.3 0 657.7 0 640 0C622.3 0 604.7 0 586.8 0C569 0 551 0 533.2 0C515.3 0 497.7 0 480 0C462.3 0 444.7 0 426.8 0C409 0 391 0 373.2 0C355.3 0 337.7 0 320 0C302.3 0 284.7 0 266.8 0C249 0 231 0 213.2 0C195.3 0 177.7 0 160 0C142.3 0 124.7 0 106.8 0C89 0 71 0 53.2 0C35.3 0 17.7 0 8.8 0L0 0Z" fill="#dbceff"></path><path d="M0 71L8.8 72C17.7 73 35.3 75 53.2 76C71 77 89 77 106.8 78.7C124.7 80.3 142.3 83.7 160 84.5C177.7 85.3 195.3 83.7 213.2 82.8C231 82 249 82 266.8 80.2C284.7 78.3 302.3 74.7 320 72C337.7 69.3 355.3 67.7 373.2 69.5C391 71.3 409 76.7 426.8 79.3C444.7 82 462.3 82 480 82C497.7 82 515.3 82 533.2 81.2C551 80.3 569 78.7 586.8 79.5C604.7 80.3 622.3 83.7 640 85.3C657.7 87 675.3 87 693.2 84.3C711 81.7 729 76.3 746.8 74.7C764.7 73 782.3 75 800 76C817.7 77 835.3 77 853.2 76C871 75 889 73 906.8 72C924.7 71 942.3 71 951.2 71L960 71L960 42L951.2 42C942.3 42 924.7 42 906.8 43C889 44 871 46 853.2 47.8C835.3 49.7 817.7 51.3 800 50.3C782.3 49.3 764.7 45.7 746.8 46.5C729 47.3 711 52.7 693.2 55.3C675.3 58 657.7 58 640 56.3C622.3 54.7 604.7 51.3 586.8 51.3C569 51.3 551 54.7 533.2 56.3C515.3 58 497.7 58 480 58C462.3 58 444.7 58 426.8 55.3C409 52.7 391 47.3 373.2 44.7C355.3 42 337.7 42 320 44.7C302.3 47.3 284.7 52.7 266.8 54.5C249 56.3 231 54.7 213.2 54.7C195.3 54.7 177.7 56.3 160 56.3C142.3 56.3 124.7 54.7 106.8 53C89 51.3 71 49.7 53.2 47.8C35.3 46 17.7 44 8.8 43L0 42Z" fill="#d2c3ff"></path><path d="M0 114L8.8 115C17.7 116 35.3 118 53.2 118C71 118 89 116 106.8 116.8C124.7 117.7 142.3 121.3 160 123.2C177.7 125 195.3 125 213.2 125C231 125 249 125 266.8 123.2C284.7 121.3 302.3 117.7 320 113.2C337.7 108.7 355.3 103.3 373.2 105.2C391 107 409 116 426.8 120.5C444.7 125 462.3 125 480 124.2C497.7 123.3 515.3 121.7 533.2 119C551 116.3 569 112.7 586.8 113.5C604.7 114.3 622.3 119.7 640 121.5C657.7 123.3 675.3 121.7 693.2 119C711 116.3 729 112.7 746.8 111.7C764.7 110.7 782.3 112.3 800 115C817.7 117.7 835.3 121.3 853.2 120.5C871 119.7 889 114.3 906.8 110.8C924.7 107.3 942.3 105.7 951.2 104.8L960 104L960 69L951.2 69C942.3 69 924.7 69 906.8 70C889 71 871 73 853.2 74C835.3 75 817.7 75 800 74C782.3 73 764.7 71 746.8 72.7C729 74.3 711 79.7 693.2 82.3C675.3 85 657.7 85 640 83.3C622.3 81.7 604.7 78.3 586.8 77.5C569 76.7 551 78.3 533.2 79.2C515.3 80 497.7 80 480 80C462.3 80 444.7 80 426.8 77.3C409 74.7 391 69.3 373.2 67.5C355.3 65.7 337.7 67.3 320 70C302.3 72.7 284.7 76.3 266.8 78.2C249 80 231 80 213.2 80.8C195.3 81.7 177.7 83.3 160 82.5C142.3 81.7 124.7 78.3 106.8 76.7C89 75 71 75 53.2 74C35.3 73 17.7 71 8.8 70L0 69Z" fill="#c9b8ff"></path><path d="M0 152L8.8 152C17.7 152 35.3 152 53.2 152C71 152 89 152 106.8 154.7C124.7 157.3 142.3 162.7 160 163.7C177.7 164.7 195.3 161.3 213.2 159.7C231 158 249 158 266.8 157C284.7 156 302.3 154 320 151.2C337.7 148.3 355.3 144.7 373.2 147.3C391 150 409 159 426.8 161.8C444.7 164.7 462.3 161.3 480 157.8C497.7 154.3 515.3 150.7 533.2 149.7C551 148.7 569 150.3 586.8 152.2C604.7 154 622.3 156 640 155.2C657.7 154.3 675.3 150.7 693.2 147.8C711 145 729 143 746.8 144.8C764.7 146.7 782.3 152.3 800 156C817.7 159.7 835.3 161.3 853.2 157.7C871 154 889 145 906.8 141.3C924.7 137.7 942.3 139.3 951.2 140.2L960 141L960 102L951.2 102.8C942.3 103.7 924.7 105.3 906.8 108.8C889 112.3 871 117.7 853.2 118.5C835.3 119.3 817.7 115.7 800 113C782.3 110.3 764.7 108.7 746.8 109.7C729 110.7 711 114.3 693.2 117C675.3 119.7 657.7 121.3 640 119.5C622.3 117.7 604.7 112.3 586.8 111.5C569 110.7 551 114.3 533.2 117C515.3 119.7 497.7 121.3 480 122.2C462.3 123 444.7 123 426.8 118.5C409 114 391 105 373.2 103.2C355.3 101.3 337.7 106.7 320 111.2C302.3 115.7 284.7 119.3 266.8 121.2C249 123 231 123 213.2 123C195.3 123 177.7 123 160 121.2C142.3 119.3 124.7 115.7 106.8 114.8C89 114 71 116 53.2 116C35.3 116 17.7 114 8.8 113L0 112Z" fill="#bfadff"></path><path d="M0 276L8.8 273.3C17.7 270.7 35.3 265.3 53.2 264.5C71 263.7 89 267.3 106.8 272.8C124.7 278.3 142.3 285.7 160 283C177.7 280.3 195.3 267.7 213.2 260.3C231 253 249 251 266.8 250C284.7 249 302.3 249 320 250.8C337.7 252.7 355.3 256.3 373.2 259.2C391 262 409 264 426.8 266.7C444.7 269.3 462.3 272.7 480 270.8C497.7 269 515.3 262 533.2 261.2C551 260.3 569 265.7 586.8 266.5C604.7 267.3 622.3 263.7 640 262.8C657.7 262 675.3 264 693.2 268.5C711 273 729 280 746.8 282.7C764.7 285.3 782.3 283.7 800 281.8C817.7 280 835.3 278 853.2 275.3C871 272.7 889 269.3 906.8 262.2C924.7 255 942.3 244 951.2 238.5L960 233L960 139L951.2 138.2C942.3 137.3 924.7 135.7 906.8 139.3C889 143 871 152 853.2 155.7C835.3 159.3 817.7 157.7 800 154C782.3 150.3 764.7 144.7 746.8 142.8C729 141 711 143 693.2 145.8C675.3 148.7 657.7 152.3 640 153.2C622.3 154 604.7 152 586.8 150.2C569 148.3 551 146.7 533.2 147.7C515.3 148.7 497.7 152.3 480 155.8C462.3 159.3 444.7 162.7 426.8 159.8C409 157 391 148 373.2 145.3C355.3 142.7 337.7 146.3 320 149.2C302.3 152 284.7 154 266.8 155C249 156 231 156 213.2 157.7C195.3 159.3 177.7 162.7 160 161.7C142.3 160.7 124.7 155.3 106.8 152.7C89 150 71 150 53.2 150C35.3 150 17.7 150 8.8 150L0 150Z" fill="#b5a2fe"></path><path d="M0 298L8.8 295.3C17.7 292.7 35.3 287.3 53.2 287.3C71 287.3 89 292.7 106.8 298C124.7 303.3 142.3 308.7 160 305C177.7 301.3 195.3 288.7 213.2 281.5C231 274.3 249 272.7 266.8 271.8C284.7 271 302.3 271 320 273.7C337.7 276.3 355.3 281.7 373.2 284.3C391 287 409 287 426.8 289.7C444.7 292.3 462.3 297.7 480 295.8C497.7 294 515.3 285 533.2 284.2C551 283.3 569 290.7 586.8 292.5C604.7 294.3 622.3 290.7 640 289.8C657.7 289 675.3 291 693.2 295.5C711 300 729 307 746.8 309.7C764.7 312.3 782.3 310.7 800 308.8C817.7 307 835.3 305 853.2 302.3C871 299.7 889 296.3 906.8 289.2C924.7 282 942.3 271 951.2 265.5L960 260L960 231L951.2 236.5C942.3 242 924.7 253 906.8 260.2C889 267.3 871 270.7 853.2 273.3C835.3 276 817.7 278 800 279.8C782.3 281.7 764.7 283.3 746.8 280.7C729 278 711 271 693.2 266.5C675.3 262 657.7 260 640 260.8C622.3 261.7 604.7 265.3 586.8 264.5C569 263.7 551 258.3 533.2 259.2C515.3 260 497.7 267 480 268.8C462.3 270.7 444.7 267.3 426.8 264.7C409 262 391 260 373.2 257.2C355.3 254.3 337.7 250.7 320 248.8C302.3 247 284.7 247 266.8 248C249 249 231 251 213.2 258.3C195.3 265.7 177.7 278.3 160 281C142.3 283.7 124.7 276.3 106.8 270.8C89 265.3 71 261.7 53.2 262.5C35.3 263.3 17.7 268.7 8.8 271.3L0 274Z" fill="#ab97fe"></path><path d="M0 384L8.8 384C17.7 384 35.3 384 53.2 385C71 386 89 388 106.8 389.8C124.7 391.7 142.3 393.3 160 392.3C177.7 391.3 195.3 387.7 213.2 386.8C231 386 249 388 266.8 388C284.7 388 302.3 386 320 386C337.7 386 355.3 388 373.2 388C391 388 409 386 426.8 386C444.7 386 462.3 388 480 389C497.7 390 515.3 390 533.2 390C551 390 569 390 586.8 390.8C604.7 391.7 622.3 393.3 640 393.3C657.7 393.3 675.3 391.7 693.2 393.5C711 395.3 729 400.7 746.8 399.7C764.7 398.7 782.3 391.3 800 389.5C817.7 387.7 835.3 391.3 853.2 393.2C871 395 889 395 906.8 393.2C924.7 391.3 942.3 387.7 951.2 385.8L960 384L960 258L951.2 263.5C942.3 269 924.7 280 906.8 287.2C889 294.3 871 297.7 853.2 300.3C835.3 303 817.7 305 800 306.8C782.3 308.7 764.7 310.3 746.8 307.7C729 305 711 298 693.2 293.5C675.3 289 657.7 287 640 287.8C622.3 288.7 604.7 292.3 586.8 290.5C569 288.7 551 281.3 533.2 282.2C515.3 283 497.7 292 480 293.8C462.3 295.7 444.7 290.3 426.8 287.7C409 285 391 285 373.2 282.3C355.3 279.7 337.7 274.3 320 271.7C302.3 269 284.7 269 266.8 269.8C249 270.7 231 272.3 213.2 279.5C195.3 286.7 177.7 299.3 160 303C142.3 306.7 124.7 301.3 106.8 296C89 290.7 71 285.3 53.2 285.3C35.3 285.3 17.7 290.7 8.8 293.3L0 296Z" fill="#a08cfe"></path><path d="M0 460L8.8 460C17.7 460 35.3 460 53.2 460C71 460 89 460 106.8 460C124.7 460 142.3 460 160 459.2C177.7 458.3 195.3 456.7 213.2 456.7C231 456.7 249 458.3 266.8 459.2C284.7 460 302.3 460 320 460C337.7 460 355.3 460 373.2 460C391 460 409 460 426.8 460.8C444.7 461.7 462.3 463.3 480 460.7C497.7 458 515.3 451 533.2 452C551 453 569 462 586.8 464.7C604.7 467.3 622.3 463.7 640 461C657.7 458.3 675.3 456.7 693.2 456.7C711 456.7 729 458.3 746.8 459.2C764.7 460 782.3 460 800 459.2C817.7 458.3 835.3 456.7 853.2 455.8C871 455 889 455 906.8 455.8C924.7 456.7 942.3 458.3 951.2 459.2L960 460L960 382L951.2 383.8C942.3 385.7 924.7 389.3 906.8 391.2C889 393 871 393 853.2 391.2C835.3 389.3 817.7 385.7 800 387.5C782.3 389.3 764.7 396.7 746.8 397.7C729 398.7 711 393.3 693.2 391.5C675.3 389.7 657.7 391.3 640 391.3C622.3 391.3 604.7 389.7 586.8 388.8C569 388 551 388 533.2 388C515.3 388 497.7 388 480 387C462.3 386 444.7 384 426.8 384C409 384 391 386 373.2 386C355.3 386 337.7 384 320 384C302.3 384 284.7 386 266.8 386C249 386 231 384 213.2 384.8C195.3 385.7 177.7 389.3 160 390.3C142.3 391.3 124.7 389.7 106.8 387.8C89 386 71 384 53.2 383C35.3 382 17.7 382 8.8 382L0 382Z" fill="#9582fd"></path><path d="M0 487L8.8 486.2C17.7 485.3 35.3 483.7 53.2 482.8C71 482 89 482 106.8 482C124.7 482 142.3 482 160 481C177.7 480 195.3 478 213.2 478C231 478 249 480 266.8 481C284.7 482 302.3 482 320 482C337.7 482 355.3 482 373.2 482.8C391 483.7 409 485.3 426.8 486.2C444.7 487 462.3 487 480 484.3C497.7 481.7 515.3 476.3 533.2 477.2C551 478 569 485 586.8 486.8C604.7 488.7 622.3 485.3 640 483.7C657.7 482 675.3 482 693.2 482.8C711 483.7 729 485.3 746.8 486.2C764.7 487 782.3 487 800 486.2C817.7 485.3 835.3 483.7 853.2 482.8C871 482 889 482 906.8 482.8C924.7 483.7 942.3 485.3 951.2 486.2L960 487L960 458L951.2 457.2C942.3 456.3 924.7 454.7 906.8 453.8C889 453 871 453 853.2 453.8C835.3 454.7 817.7 456.3 800 457.2C782.3 458 764.7 458 746.8 457.2C729 456.3 711 454.7 693.2 454.7C675.3 454.7 657.7 456.3 640 459C622.3 461.7 604.7 465.3 586.8 462.7C569 460 551 451 533.2 450C515.3 449 497.7 456 480 458.7C462.3 461.3 444.7 459.7 426.8 458.8C409 458 391 458 373.2 458C355.3 458 337.7 458 320 458C302.3 458 284.7 458 266.8 457.2C249 456.3 231 454.7 213.2 454.7C195.3 454.7 177.7 456.3 160 457.2C142.3 458 124.7 458 106.8 458C89 458 71 458 53.2 458C35.3 458 17.7 458 8.8 458L0 458Z" fill="#8977fd"></path><path d="M0 514L8.8 514.8C17.7 515.7 35.3 517.3 53.2 517.3C71 517.3 89 515.7 106.8 514.8C124.7 514 142.3 514 160 513.2C177.7 512.3 195.3 510.7 213.2 510.7C231 510.7 249 512.3 266.8 512.3C284.7 512.3 302.3 510.7 320 511.5C337.7 512.3 355.3 515.7 373.2 517.3C391 519 409 519 426.8 518.2C444.7 517.3 462.3 515.7 480 514C497.7 512.3 515.3 510.7 533.2 511.5C551 512.3 569 515.7 586.8 516.5C604.7 517.3 622.3 515.7 640 514.8C657.7 514 675.3 514 693.2 514C711 514 729 514 746.8 514C764.7 514 782.3 514 800 514C817.7 514 835.3 514 853.2 514C871 514 889 514 906.8 514C924.7 514 942.3 514 951.2 514L960 514L960 485L951.2 484.2C942.3 483.3 924.7 481.7 906.8 480.8C889 480 871 480 853.2 480.8C835.3 481.7 817.7 483.3 800 484.2C782.3 485 764.7 485 746.8 484.2C729 483.3 711 481.7 693.2 480.8C675.3 480 657.7 480 640 481.7C622.3 483.3 604.7 486.7 586.8 484.8C569 483 551 476 533.2 475.2C515.3 474.3 497.7 479.7 480 482.3C462.3 485 444.7 485 426.8 484.2C409 483.3 391 481.7 373.2 480.8C355.3 480 337.7 480 320 480C302.3 480 284.7 480 266.8 479C249 478 231 476 213.2 476C195.3 476 177.7 478 160 479C142.3 480 124.7 480 106.8 480C89 480 71 480 53.2 480.8C35.3 481.7 17.7 483.3 8.8 484.2L0 485Z" fill="#7c6dfc"></path><path d="M0 541L8.8 541C17.7 541 35.3 541 53.2 541C71 541 89 541 106.8 541C124.7 541 142.3 541 160 541C177.7 541 195.3 541 213.2 541C231 541 249 541 266.8 541C284.7 541 302.3 541 320 541C337.7 541 355.3 541 373.2 541C391 541 409 541 426.8 541C444.7 541 462.3 541 480 541C497.7 541 515.3 541 533.2 541C551 541 569 541 586.8 541C604.7 541 622.3 541 640 541C657.7 541 675.3 541 693.2 541C711 541 729 541 746.8 541C764.7 541 782.3 541 800 541C817.7 541 835.3 541 853.2 541C871 541 889 541 906.8 541C924.7 541 942.3 541 951.2 541L960 541L960 512L951.2 512C942.3 512 924.7 512 906.8 512C889 512 871 512 853.2 512C835.3 512 817.7 512 800 512C782.3 512 764.7 512 746.8 512C729 512 711 512 693.2 512C675.3 512 657.7 512 640 512.8C622.3 513.7 604.7 515.3 586.8 514.5C569 513.7 551 510.3 533.2 509.5C515.3 508.7 497.7 510.3 480 512C462.3 513.7 444.7 515.3 426.8 516.2C409 517 391 517 373.2 515.3C355.3 513.7 337.7 510.3 320 509.5C302.3 508.7 284.7 510.3 266.8 510.3C249 510.3 231 508.7 213.2 508.7C195.3 508.7 177.7 510.3 160 511.2C142.3 512 124.7 512 106.8 512.8C89 513.7 71 515.3 53.2 515.3C35.3 515.3 17.7 513.7 8.8 512.8L0 512Z" fill="#6d63fc"></path></svg>