<svg id="visual" viewBox="0 0 900 600" width="900" height="600" xmlns="http://www.w3.org/2000/svg" xmlns:xlink="http://www.w3.org/1999/xlink" version="1.1"><path d="M0 43L8.8 45C17.7 47 35.3 51 53 53C70.7 55 88.3 55 106 55C123.7 55 141.3 55 159 51C176.7 47 194.3 39 212 39C229.7 39 247.3 47 265 46C282.7 45 300.3 35 318 36C335.7 37 353.3 49 371 52C388.7 55 406.3 49 423.8 46C441.3 43 458.7 43 476.2 46C493.7 49 511.3 55 529 56C546.7 57 564.3 53 582 51C599.7 49 617.3 49 635 50C652.7 51 670.3 53 688 53C705.7 53 723.3 51 741 49C758.7 47 776.3 45 794 42C811.7 39 829.3 35 847 33C864.7 31 882.3 31 891.2 31L900 31L900 0L891.2 0C882.3 0 864.7 0 847 0C829.3 0 811.7 0 794 0C776.3 0 758.7 0 741 0C723.3 0 705.7 0 688 0C670.3 0 652.7 0 635 0C617.3 0 599.7 0 582 0C564.3 0 546.7 0 529 0C511.3 0 493.7 0 476.2 0C458.7 0 441.3 0 423.8 0C406.3 0 388.7 0 371 0C353.3 0 335.7 0 318 0C300.3 0 282.7 0 265 0C247.3 0 229.7 0 212 0C194.3 0 176.7 0 159 0C141.3 0 123.7 0 106 0C88.3 0 70.7 0 53 0C35.3 0 17.7 0 8.8 0L0 0Z" fill="#7715c2"></path><path d="M0 115L8.8 115C17.7 115 35.3 115 53 114C70.7 113 88.3 111 106 108C123.7 105 141.3 101 159 99C176.7 97 194.3 97 212 98C229.7 99 247.3 101 265 98C282.7 95 300.3 87 318 88C335.7 89 353.3 99 371 100C388.7 101 406.3 93 423.8 91C441.3 89 458.7 93 476.2 100C493.7 107 511.3 117 529 117C546.7 117 564.3 107 582 105C599.7 103 617.3 109 635 110C652.7 111 670.3 107 688 103C705.7 99 723.3 95 741 92C758.7 89 776.3 87 794 89C811.7 91 829.3 97 847 99C864.7 101 882.3 99 891.2 98L900 97L900 29L891.2 29C882.3 29 864.7 29 847 31C829.3 33 811.7 37 794 40C776.3 43 758.7 45 741 47C723.3 49 705.7 51 688 51C670.3 51 652.7 49 635 48C617.3 47 599.7 47 582 49C564.3 51 546.7 55 529 54C511.3 53 493.7 47 476.2 44C458.7 41 441.3 41 423.8 44C406.3 47 388.7 53 371 50C353.3 47 335.7 35 318 34C300.3 33 282.7 43 265 44C247.3 45 229.7 37 212 37C194.3 37 176.7 45 159 49C141.3 53 123.7 53 106 53C88.3 53 70.7 53 53 51C35.3 49 17.7 45 8.8 43L0 41Z" fill="#8222c7"></path><path d="M0 259L8.8 262C17.7 265 35.3 271 53 272C70.7 273 88.3 269 106 256C123.7 243 141.3 221 159 212C176.7 203 194.3 207 212 215C229.7 223 247.3 235 265 242C282.7 249 300.3 251 318 255C335.7 259 353.3 265 371 256C388.7 247 406.3 223 423.8 217C441.3 211 458.7 223 476.2 233C493.7 243 511.3 251 529 252C546.7 253 564.3 247 582 239C599.7 231 617.3 221 635 231C652.7 241 670.3 271 688 275C705.7 279 723.3 257 741 249C758.7 241 776.3 247 794 245C811.7 243 829.3 233 847 227C864.7 221 882.3 219 891.2 218L900 217L900 95L891.2 96C882.3 97 864.7 99 847 97C829.3 95 811.7 89 794 87C776.3 85 758.7 87 741 90C723.3 93 705.7 97 688 101C670.3 105 652.7 109 635 108C617.3 107 599.7 101 582 103C564.3 105 546.7 115 529 115C511.3 115 493.7 105 476.2 98C458.7 91 441.3 87 423.8 89C406.3 91 388.7 99 371 98C353.3 97 335.7 87 318 86C300.3 85 282.7 93 265 96C247.3 99 229.7 97 212 96C194.3 95 176.7 95 159 97C141.3 99 123.7 103 106 106C88.3 109 70.7 111 53 112C35.3 113 17.7 113 8.8 113L0 113Z" fill="#8c2dcd"></path><path d="M0 301L8.8 301C17.7 301 35.3 301 53 303C70.7 305 88.3 309 106 300C123.7 291 141.3 269 159 261C176.7 253 194.3 259 212 269C229.7 279 247.3 293 265 299C282.7 305 300.3 303 318 306C335.7 309 353.3 317 371 309C388.7 301 406.3 277 423.8 267C441.3 257 458.7 261 476.2 269C493.7 277 511.3 289 529 293C546.7 297 564.3 293 582 284C599.7 275 617.3 261 635 267C652.7 273 670.3 299 688 301C705.7 303 723.3 281 741 273C758.7 265 776.3 271 794 272C811.7 273 829.3 269 847 265C864.7 261 882.3 257 891.2 255L900 253L900 215L891.2 216C882.3 217 864.7 219 847 225C829.3 231 811.7 241 794 243C776.3 245 758.7 239 741 247C723.3 255 705.7 277 688 273C670.3 269 652.7 239 635 229C617.3 219 599.7 229 582 237C564.3 245 546.7 251 529 250C511.3 249 493.7 241 476.2 231C458.7 221 441.3 209 423.8 215C406.3 221 388.7 245 371 254C353.3 263 335.7 257 318 253C300.3 249 282.7 247 265 240C247.3 233 229.7 221 212 213C194.3 205 176.7 201 159 210C141.3 219 123.7 241 106 254C88.3 267 70.7 271 53 270C35.3 269 17.7 263 8.8 260L0 257Z" fill="#9637d2"></path><path d="M0 385L8.8 387C17.7 389 35.3 393 53 394C70.7 395 88.3 393 106 379C123.7 365 141.3 339 159 332C176.7 325 194.3 337 212 351C229.7 365 247.3 381 265 390C282.7 399 300.3 401 318 402C335.7 403 353.3 403 371 396C388.7 389 406.3 375 423.8 362C441.3 349 458.7 337 476.2 342C493.7 347 511.3 369 529 380C546.7 391 564.3 391 582 379C599.7 367 617.3 343 635 353C652.7 363 670.3 407 688 411C705.7 415 723.3 379 741 359C758.7 339 776.3 335 794 333C811.7 331 829.3 331 847 331C864.7 331 882.3 331 891.2 331L900 331L900 251L891.2 253C882.3 255 864.7 259 847 263C829.3 267 811.7 271 794 270C776.3 269 758.7 263 741 271C723.3 279 705.7 301 688 299C670.3 297 652.7 271 635 265C617.3 259 599.7 273 582 282C564.3 291 546.7 295 529 291C511.3 287 493.7 275 476.2 267C458.7 259 441.3 255 423.8 265C406.3 275 388.7 299 371 307C353.3 315 335.7 307 318 304C300.3 301 282.7 303 265 297C247.3 291 229.7 277 212 267C194.3 257 176.7 251 159 259C141.3 267 123.7 289 106 298C88.3 307 70.7 303 53 301C35.3 299 17.7 299 8.8 299L0 299Z" fill="#a041d8"></path><path d="M0 487L8.8 487C17.7 487 35.3 487 53 488C70.7 489 88.3 491 106 497C123.7 503 141.3 513 159 513C176.7 513 194.3 503 212 500C229.7 497 247.3 501 265 500C282.7 499 300.3 493 318 494C335.7 495 353.3 503 371 502C388.7 501 406.3 491 423.8 494C441.3 497 458.7 513 476.2 514C493.7 515 511.3 501 529 495C546.7 489 564.3 491 582 493C599.7 495 617.3 497 635 504C652.7 511 670.3 523 688 521C705.7 519 723.3 503 741 492C758.7 481 776.3 475 794 476C811.7 477 829.3 485 847 495C864.7 505 882.3 517 891.2 523L900 529L900 329L891.2 329C882.3 329 864.7 329 847 329C829.3 329 811.7 329 794 331C776.3 333 758.7 337 741 357C723.3 377 705.7 413 688 409C670.3 405 652.7 361 635 351C617.3 341 599.7 365 582 377C564.3 389 546.7 389 529 378C511.3 367 493.7 345 476.2 340C458.7 335 441.3 347 423.8 360C406.3 373 388.7 387 371 394C353.3 401 335.7 401 318 400C300.3 399 282.7 397 265 388C247.3 379 229.7 363 212 349C194.3 335 176.7 323 159 330C141.3 337 123.7 363 106 377C88.3 391 70.7 393 53 392C35.3 391 17.7 387 8.8 385L0 383Z" fill="#a94add"></path><path d="M0 571L8.8 569C17.7 567 35.3 563 53 562C70.7 561 88.3 563 106 563C123.7 563 141.3 561 159 562C176.7 563 194.3 567 212 570C229.7 573 247.3 575 265 571C282.7 567 300.3 557 318 554C335.7 551 353.3 555 371 557C388.7 559 406.3 559 423.8 561C441.3 563 458.7 567 476.2 565C493.7 563 511.3 555 529 553C546.7 551 564.3 555 582 556C599.7 557 617.3 555 635 558C652.7 561 670.3 569 688 572C705.7 575 723.3 573 741 568C758.7 563 776.3 555 794 551C811.7 547 829.3 547 847 552C864.7 557 882.3 567 891.2 572L900 577L900 527L891.2 521C882.3 515 864.7 503 847 493C829.3 483 811.7 475 794 474C776.3 473 758.7 479 741 490C723.3 501 705.7 517 688 519C670.3 521 652.7 509 635 502C617.3 495 599.7 493 582 491C564.3 489 546.7 487 529 493C511.3 499 493.7 513 476.2 512C458.7 511 441.3 495 423.8 492C406.3 489 388.7 499 371 500C353.3 501 335.7 493 318 492C300.3 491 282.7 497 265 498C247.3 499 229.7 495 212 498C194.3 501 176.7 511 159 511C141.3 511 123.7 501 106 495C88.3 489 70.7 487 53 486C35.3 485 17.7 485 8.8 485L0 485Z" fill="#b354e3"></path><path d="M0 601L8.8 601C17.7 601 35.3 601 53 601C70.7 601 88.3 601 106 601C123.7 601 141.3 601 159 601C176.7 601 194.3 601 212 601C229.7 601 247.3 601 265 601C282.7 601 300.3 601 318 601C335.7 601 353.3 601 371 601C388.7 601 406.3 601 423.8 601C441.3 601 458.7 601 476.2 601C493.7 601 511.3 601 529 601C546.7 601 564.3 601 582 601C599.7 601 617.3 601 635 601C652.7 601 670.3 601 688 601C705.7 601 723.3 601 741 601C758.7 601 776.3 601 794 601C811.7 601 829.3 601 847 601C864.7 601 882.3 601 891.2 601L900 601L900 575L891.2 570C882.3 565 864.7 555 847 550C829.3 545 811.7 545 794 549C776.3 553 758.7 561 741 566C723.3 571 705.7 573 688 570C670.3 567 652.7 559 635 556C617.3 553 599.7 555 582 554C564.3 553 546.7 549 529 551C511.3 553 493.7 561 476.2 563C458.7 565 441.3 561 423.8 559C406.3 557 388.7 557 371 555C353.3 553 335.7 549 318 552C300.3 555 282.7 565 265 569C247.3 573 229.7 571 212 568C194.3 565 176.7 561 159 560C141.3 559 123.7 561 106 561C88.3 561 70.7 559 53 560C35.3 561 17.7 565 8.8 567L0 569Z" fill="#bc5de8"></path></svg>