<svg id="visual" viewBox="0 0 900 600" width="900" height="600" xmlns="http://www.w3.org/2000/svg" xmlns:xlink="http://www.w3.org/1999/xlink" version="1.1"><g><g transform="translate(109 238)"><path d="M0 -176.2L103.6 -142.5L167.6 -54.4L167.6 54.4L103.6 142.5L0 176.2L-103.6 142.5L-167.6 54.4L-167.6 -54.4L-103.6 -142.5Z" fill="#9b8ef2"></path></g><g transform="translate(502 277)"><path d="M0 -137L80.5 -110.8L130.3 -42.3L130.3 42.3L80.5 110.8L0 137L-80.5 110.8L-130.3 42.3L-130.3 -42.3L-80.5 -110.8Z" fill="#9b8ef2"></path></g><g transform="translate(816 6)"><path d="M0 -171L100.5 -138.3L162.6 -52.8L162.6 52.8L100.5 138.3L0 171L-100.5 138.3L-162.6 52.8L-162.6 -52.8L-100.5 -138.3Z" fill="#9b8ef2"></path></g><g transform="translate(226 598)"><path d="M0 -162L95.2 -131.1L154.1 -50.1L154.1 50.1L95.2 131.1L0 162L-95.2 131.1L-154.1 50.1L-154.1 -50.1L-95.2 -131.1Z" fill="#9b8ef2"></path></g><g transform="translate(790 597)"><path d="M0 -136L79.9 -110L129.3 -42L129.3 42L79.9 110L0 136L-79.9 110L-129.3 42L-129.3 -42L-79.9 -110Z" fill="#9b8ef2"></path></g></g></svg>